<svg xmlns="http://www.w3.org/2000/svg" viewBox="0 0 512 512">
  <defs>
    <linearGradient id="bg" x1="0%" y1="0%" x2="100%" y2="100%">
      <stop offset="0%" stop-color="#2a2a2a"/>
      <stop offset="100%" stop-color="#121212"/>
    </linearGradient>
    <linearGradient id="gold" x1="0%" y1="0%" x2="100%" y2="100%">
      <stop offset="0%" stop-color="#fff9e6"/>
      <stop offset="50%" stop-color="#faf0ca"/>
      <stop offset="100%" stop-color="#dfce92"/>
    </linearGradient>
  </defs>
  <rect width="512" height="512" fill="url(#bg)" rx="96"/>
  <g transform="translate(256, 256) scale(1.6) translate(-256, -256)">
    <path d="M 336 216 L 336 144 L 176 144 C 158.3 144 144 158.3 144 176 L 144 336 C 144 353.7 158.3 368 176 368 L 336 368 C 353.7 368 368 353.7 368 336 L 368 256 L 240 256 L 240 296 L 328 296 L 328 328 L 184 328 L 184 184 L 296 184 L 296 216 Z" fill="url(#gold)"/>
    
    <!-- Architectural dot accents -->
    <circle cx="144" cy="144" r="16" fill="url(#gold)" />
    <circle cx="368" cy="144" r="16" fill="url(#gold)" />
    <circle cx="144" cy="368" r="16" fill="url(#gold)" />
    <circle cx="368" cy="368" r="16" fill="url(#gold)" />
  </g>
</svg>
